<svg id="Layer_2" height="512" viewBox="0 0 256 256" width="512" xmlns="http://www.w3.org/2000/svg" data-name="Layer 2"><path d="m186.47 31c-1.05-13.5-14.43-12.35-27.2-12-9.91.05-19.56.08-34.33.28-53.21 1.97-54.94-7.12-52.38 32.86-.18 1.26.76 3.45.75 0 1.83-9.63-2.8-20.37 4.71-27.43 2.59-2.71 17.78-.71 20.98-1.05-4.73 18.71 24.68 9.77 35.69 10.16 9.14-.44 26.2 6.22 23.46-9.46 12.54.86 24.78-4.42 23.34 12.64 0 0 .68 30.42.8 36.43 1.42 44.39.59 95.77-.72 149.86-.4 10.25-10.2 7.44-24.88 7.63-4.33 0-22.83-.2-38.58-.32-47.61-1.47-41.41 7.74-42.15-27.58-.36-37.52-1.1-77.56-2.55-116.2.21-2.46-.76-5.89-.85 0-1.6 43.88-2.22 78.89-2.63 126-3.27 32.17 16.87 22.61 39.8 24 18.1-.25 48.21-.19 65.81-.67 15.34-1.92 9.88-22.55 10.49-30.95-.36-14.94-.58-28.91-.85-42.72-1.03-42.63.61-88.66 1.29-131.48zm-30.1-4.16c-1.23 10.22-40.73 3-48.89 4.29-4.68.91-7.25-2.3-7.55-7.46 17.48.38 39.34.6 56.84.67-.15.85-.29 1.66-.4 2.51z"/><path d="m128.44 224.7a144.44 144.44 0 0 0 25.5-2 158.94 158.94 0 0 0 -51 0 142.47 142.47 0 0 0 25.5 2z"/></svg>