<svg id="Layer_2" height="512" viewBox="0 0 256 256" width="512" xmlns="http://www.w3.org/2000/svg" data-name="Layer 2"><path d="m200.32 27.53c-1-6.22-15.7-2.07-19.88-3.17-13.46 0-26 .35-39.46.12 0-2 3.38-8-.46-9.5-9.81-.38-19.16.39-29.83 1.33-11 2.58-26.67-8.78-20.87 8.57-10.87.36-44.06.74-56.49 1-4.29 6.76 0 22.84-1.2 32.66 1.34 60.26-1.56 120.87-1.28 180.92 1.6 1.57.73 1.59 4 1.65 12.33 0 24.34-.05 36.83-.13 39.75-.36 88-1.11 125.65-2.46 1.67-71.3 3.07-141.52 2.99-210.99zm-48.91 27.35c-1.78-.12-3.54-.22-5.28-.31l5.24-.34zm-27.88-2.22c-13.62-2.09-44.54 3.12-44-.76.19-25.48-1.91-22 8-21.88 18.83.22 40.83.33 62.27.48.72 2.45.94 17.93 1.54 23.42-9.29-.56-18.25-.92-27.81-1.26zm-32.1-28.93a22.6 22.6 0 0 0 .63-3.35c.38-1-.62-2 1.66-1.71a101.94 101.94 0 0 1 27.86 0c4.8.25 11.13.56 16.86.44a32.65 32.65 0 0 0 1.1 5.33c-14.78-.38-33.24 0-48.45.37.13-.34.23-.71.34-1.08zm63.91 213.47c-38.47-.8-81-1.53-119.36-1.45-.77-68.49-2.78-137.93-1-206.55l37.1.62 4.63.06c2.88.1.77 5.95 1.5 9.1-9.84-.67-24.8-4.51-31.53 1.7-.47 16.89-4.54 49.8.73 60.29 8.1-79.15-18.54-54.62 30.81-61.36.32 5-.3 10.59.17 15.9a377.79 377.79 0 0 0 39.07 1.1c43.8-2.27 32.56 3.85 35.25-17 33.89 3 28.28-5.34 28.18 17.06-1.56 54.53-1.26 105.36.16 159.33 0 3.16 1 4.94-3.05 4.85-28.87.95-56.66 1.11-85.41-.05-45.26-2.42-42.69 2.69-42.42-7 0-22.25-2-108.35-3.49-72.08-.53 34.39-5 80.4 1 82.53 2.07 1.33 3.85.88 6.44.94 38.37-.56 77.54-2.8 116.24-1.21 6.14-.21 15.08 2.77 14.64-6.66 1.45-51.09 1.71-106.81.35-155.51-.35-8.81-.35-9.71-.51-15.69 3.09-14.67-23.84-5.83-32.14-7.12.7-1.61-.88-7.83 1.18-8.44 14 .09 26.52.2 40 .2-.06 67.45 1.53 140.06 3 207.49z"/><path d="m168.77 86c-31.08 1-62.32.73-93.66.24-16.84-.67-13.37 4.06-13.93-10.86-1.3-3.62 5.61-1.53 9.44-2.16 33.54-.49 62.08-.52 97.59.25 1.9-2 .28 11.58.56 12.53zm-.14-.14-.37-11.93.44.44c-35.5.81-71.29.78-107 .1l.55-.54-.18 12-.37-.37c35.22.03 71.46-.97 106.93.3z"/><path d="m122.77 107c-77.24 1.42-59 2.6-61.59-11.14-.71-3.36 11.4-1 14.25-1.82 59.19.29 46.7-3.85 47.34 12.96zm-.14-.14c-.17-3.81-.39-7.69-.53-11.93l.6.6c-19.65.68-41 .54-61-.06l.55-.54c-.1 3.87-.22 7.64-.24 12l-.31-.32c20-.29 40.2-.89 60.93.25z"/><path d="m168.77 107a329.7 329.7 0 0 1 -39.07.24c-.17-2.8-1.37-10.28.14-12.87 50-.82 38.47-3.52 38.93 12.63zm-.14-.14c-.19-3-.54-8.93-.69-11.93l.76.76c-12.32.49-26.46.33-39-.22l.55-.54c-.13 3.4-.29 7.53-.23 12l-.32-.32a331.55 331.55 0 0 1 38.93.25z"/><path d="m168.77 129c-31.08 1-62.32.73-93.66.24-16.84-.67-13.37 4.06-13.93-10.86-1.3-3.62 5.61-1.53 9.44-2.16 33.54-.49 62.08-.52 97.59.25 1.9-2 .28 11.58.56 12.53zm-.14-.14-.37-11.93.44.44c-35.5.81-71.29.78-107 .1l.55-.54-.18 12-.37-.37c35.22.03 71.46-.97 106.93.3z"/><path d="m122.77 150c-77.24 1.42-59 2.6-61.59-11.14-.71-3.36 11.4-1 14.25-1.82 59.19.29 46.7-3.85 47.34 12.96zm-.14-.14c-.17-3.81-.39-7.69-.53-11.93l.6.6c-19.65.68-41 .54-61-.06l.55-.54c-.1 3.87-.22 7.64-.24 12l-.31-.32c20-.29 40.2-.89 60.93.25z"/><path d="m168.77 171c-31.08 1-62.32.73-93.66.24-16.84-.67-13.37 4.06-13.93-10.86-1.3-3.62 5.61-1.53 9.44-2.16 33.54-.49 62.08-.52 97.59.25 1.9-2 .28 11.58.56 12.53zm-.14-.14-.37-11.93.44.44c-35.5.81-71.29.78-107 .1l.55-.54-.18 12-.37-.37c35.22.03 71.46-.97 106.93.3z"/><path d="m168.77 192a329.7 329.7 0 0 1 -39.07.24c-.17-2.8-1.37-10.28.14-12.87 50-.82 38.47-3.52 38.93 12.63zm-.14-.14c-.19-3-.54-8.93-.69-11.93l.76.76c-12.32.49-26.46.33-39-.22l.55-.54c-.13 3.4-.29 7.53-.23 12l-.32-.32a331.55 331.55 0 0 1 38.93.25z"/><path d="m225.08 87.69c-1.45-41.47 4.75-34.39-13.47-34.61-1.05-.25-1.75 1.15-1.56 2.44 3.17 62.75-6.39 131.23 5.69 144 2.41 7 6.16-10.59 7.5-12.36.29-5.39.66-14.69.77-18 .99-31.68 1.33-53.05 1.07-81.47zm-12 57.93c-.62-26.72-1.77-54-.69-80.93 2.48.1 4.56 1.08 8.83.53-.66 39.64-.36 80.13 1.51 120.08-2.38-.11-5.87-1.33-10-.55.33-12.49.48-26.41.39-39.13zm-.67-81.44c.32-.81-.47-10.09.94-8.36 11.55-.58 7.2 1.2 7.89 7.84-2.05-.55-5.24.13-8.79.52zm4.84 134c-1.07-3.38-3.7-8-4.55-12.08 2.75.77 5.46-.06 10-.54-.08 3.77-3.79 8.49-5.41 12.64z"/></svg>