<svg id="Layer_2" height="512" viewBox="0 0 256 256" width="512" xmlns="http://www.w3.org/2000/svg" data-name="Layer 2"><path d="m241.74 199.49c-4.42-170.16 5.66-142.34-16.09-145.56-79.18-1.6-111.19-2-169.09-1.29-44.86 1.51-42.56-5.16-41.66 19.42.36 9.17.66 41.48 1.72 32.54.65-10.81.42-27 1.24-33.41l12.72.18c82.18.56 135.61 3.48 207.7-.16-2.59 163.91 4.83 135.12-22.94 138.09-61-1.34-130 .94-192.54-.14-8.42-5.25-3.37-14.18-4.95-24.07-.26-13.94-.64-28.14-1.09-43-.07-2.09-.12-3.7-.2-6-.06-.09-.34-.57-.6 0-.3 37.86-4.26 68.32 1 73.72 3.35 5 11.48 4.71 17.34 4.64 14.47.24 30.13.42 44.89.55 166.36-.14 161.02 4.87 162.55-15.51zm-30.41-129.93c-61.54-1.62-131.94.7-193.69 1.19 1-3.87-1.73-10.64 1.77-13.88 5.92-.41 15.16.3 17.82.15 35.08.5 58.6.68 89 .61 132.7-.38 109.7-8.77 112 13.09q-13.42-.78-26.9-1.16z"/><path d="m123.63 49.77c5.5 6.12 12.21-3.67 5.67-8.7-4.66-2.41-10.22 4.07-5.67 8.7zm-.58-3.51c.26-4.52 9.62-5.1 8.42 1.16-1.38 3.36-8.66 4.25-8.42-1.16z"/><path d="m214.23 119.07c-.88-9.61-7.74-28.33-3-2.18-38.08-25.21-32.49-25.33-40.36-12.46-13.06 23.55-29 43.21-44.66 64.6-11-8-21-20.78-33.45-25.82-15.2 6-35.09 11.57-48 19.19 66.46-15.13 34.85-20.17 80.15 12.87 3.6 2.3 5.12-2.61 7.34-5.67 14.54-23.93 28.36-46.3 46-68 9.35 6.19 19.76 12.35 30 18.15-3.22 1.7-11.69 3-13.56 5.69 4.86-1.74 21.88-1.57 19.54-6.37z"/></svg>