<svg id="Layer_2" height="512" viewBox="0 0 256 256" width="512" xmlns="http://www.w3.org/2000/svg" data-name="Layer 2"><path d="m135.16 102c.57-7.61 4-16.24 11-21.3 9.06 6.26 14.66 18.17 23.17 26.52-5.54 1.19-38.33 1.29-34.17-5.22zm9.12 3a130.69 130.69 0 0 1 23.15 1.48c-6.28-7.35-14.13-14.1-21.07-22-5.36 5.14-7.8 11.57-9.36 19.52 3.09-.13 4.44 1.06 7.28 1z"/><path d="m147.2 111.53c9.13-2.75 23.88 2.13 34.48 1.87-7.32-8.29-16.67-16.11-23.37-24.93 13.27-15.74 41-11.41 51.53 5.8 30.02 56.82-62.32 77.73-62.64 17.26zm3.88 11c9.86 29.8 50.12 29.92 61.3 2.5 12.72-33.31-26.79-56.03-51.15-36.34 6.61 7.57 14.11 17 20.72 24.84-10.52-.33-21.65-.28-32.35-.68a33.13 33.13 0 0 0 1.48 9.71z"/><path d="m49.78 55.49c19.93-2.38 40-1.48 60.39-.42 32.53-.74 63.9-3.06 96.61.42.3.74-1 .37-3 .68-29.39 2.66-56.57 1.58-86 .18-22.62-.28-46.52 3.22-68-.86z"/><path d="m239.45 144.35c-.12-35-.54-71.76-1.51-106.94-.38-1.79-3.13-.84-7.15-.91-7.39.47-14.1 0-19.8 1 6.19 1.12 16.29.6 24.35 1.13.66 0 .06.6.17 3-1.08 42.89-1.52 84.3-1.38 127-26.54-2.12-53.35-1.28-80.23-.23-44.33-.67-87.31-3-131.61.26.39-41.73.84-86.24.64-128 45.42-1.16 123.59.32 155.25-3.52-14.91-.48-26.72-.85-42.25-1.16-1.45-2.16-3.64-27.49-10.36-15.46-8.66 21.89 7.17 13.78-43.68 14.49-82.75.23-62.73-9.68-65.31 30.42 0 30.21.39 68.52.61 97 1.3 16.85-4.17 21.33 9.25 19.9l43.2-.76c-4.26 7.67-28.86 70.95-18.66 54.17 31.88-69.44-2.17-51.92 64-54.72-8.76 33.11 2.76 35.33.51 0 23.77-.13 47.14.11 71.79.68 5.84 15 9.4 33.63 16.92 49.38s4.17 4.07 2.2-3.58c-5-16-12-30-18.41-45.79 66.16-.38 49.15 12.08 51.46-37.36zm-106.36-112c.63 1.19 1.24 2.39 1.88 3.58l-7.65-.15c.81-2.78 1.56-6.47 2.45-10.18.87 1.53 2.05 4.21 3.32 6.71zm-9 .38c.74-1.41 1.44-2.85 2.13-4.28 0 2 .09 4.28.28 7.31l-4-.08c.5-1.02 1.06-2.01 1.59-2.99zm58.44 145.76c-54.48 1.28-96 .35-158.61-.77-3 1-1.32-3.68-1.64-8.34 44.07 3.34 88.54.82 133.13.28 25.94 1.12 52.5 1.8 78.73-.25 0 2.7 0 5.39.07 8.09-14.49.16-37.04.67-51.68.95z"/><path d="m37 82.8c6.68-3.17 14.49-.07 22.5-.65 1.14-1.47 29.85-1.61 24.3 1.43-9.65 3-18.2.72-28.8.06-5.29.76-12.42 2.54-18-.84z"/><path d="m37 94.13c8.69-2.62 18.47-1 28.33-.41 13-.94 27.49-3.35 39.67.81-11.27 2.39-22 2.41-34 .9-10.74-1.9-23.17 3.38-34-1.3z"/><path d="m37 135.47c4.59-2.38 9.75-1.36 15.44-.4 4.44-.35 8-1.74 13.06-1.54 21 1.9 0 5.79-8.31 3.51-6.69-2.55-13.79 3.18-20.19-1.57z"/><path d="m37 146.8c12.28-2.57 25-1.17 38.19-.41 18.62-.78 38.16-3.5 55.81.81-15.62 2.43-30.8 2.38-47 .9-15-1.9-32.06 3.36-47-1.3z"/></svg>