<svg id="Layer_2" height="512" viewBox="0 0 256 256" width="512" xmlns="http://www.w3.org/2000/svg" data-name="Layer 2"><path d="m56.79 148.47c.31-9.27-7.66-8.5-15.42-8-6.86.77-12.92-.72-19.68 1.79-5.15 3.54-.71 18-1.78 23.43.3 24.35-3.18 47-1.27 71.41 1.44 2.21 3.4 1.11 6.52 1.2 10.08-.46 15.89-.87 27.66-1.93 1.47-.45 1.15.8 1.33-1.51.76-10.33 1.39-20.86 1.9-32.07.88-18.56 1.19-36.26.74-54.32zm-11.79 86.64c-5.76-1.76-23.86 1.4-21.61-4.2 1-21.26-1.59-41-1.62-62.26 0-6.59.14-10.85.42-17.52.52-2.38-1-5 2.14-6.25 8.17.35 16.86.79 25.57.93 1.38.1 1 2.81 1 4.08-.71 30.83.9 55.43 2.77 85.91z"/><path d="m117.08 132.29c.76-12.27-3.84-12.48-15.42-11.77-7.4 1.46-15.76-2.35-21.34 3.61-1.78 12.84.9 25.82-.19 39.28-.94 25-2.66 48.56-1 73.61 1 1.42 1.92 1.24 3.24 1.19 12.34-.45 17.36-.89 28.79-1.74 5.72.66 2.56-3.4 3.66-7.48 1.84-31.88 3.01-64.56 2.26-96.7zm-20 102.32c-4.57-1.46-15.5 2.06-13.54-3.81 1.55-35.35-3.11-68.68-.82-104 .58-3.51 8.94-1.27 12.27-1.55 5.65 1 14.36-1.27 16.34 1.64-1 36.59.51 71.26 2.61 108.89z"/><path d="m176.7 201c-.95-10.76.13-25.79-2.5-35-.73 7.85-1.28 19.31-1.59 26.34-3.61 53 10.36 38.5-29.68 42.1-1.7-37.79 1.77-75.53 1.7-113.71 1.31-10.63-2.87-26.27 3-24.66 7.86.68 17.46-2 24.44.37.75 11.35.94 23.43 1.85 35.07 1.24 18.58 2.78-31.86 2.78-29.38.91-8.28-.94-12-8.93-11.75-12.53.94-29.95-5.45-29.41 8.19-.19 47.15 2.38 92.78 2.34 138.69 11.92.78 24.13 2.4 35.74.66 2.63-11.59-.29-24.62.26-36.92z"/><path d="m237.81 97.42c-1.7-31.26 6.18-35.94-18.55-34.11-3.8 1.18-18.63-3-19 6.24 2.24 55.31-3 111-.31 166.46.29 2.79 3.66 1.63 8 1.65 6.26-.17 19.93-1 27.1-1.44 1.95-44.63 3.32-92.88 2.76-138.8zm-19.95 137.45c-3.74-.22-10.21-.51-14.1-.66.31-9.78.51-20.69.63-30.7.76-29.56-1.2-58.92-1.59-88 1.54-62.28-7.68-46.3 28.09-47.53 2.47.52.84 7.46 1.24 7-1.08 59.5.25 104.42 2.49 160.8z"/><path d="m224.3 27.87c-1.53-2.18.43-6.68-1-9.06-10.51-4.42-28 2.22-3.57 2.63-91.53 77.62-138.73 74.47-198.92 87.27 29.93 4.08 64.42-8.16 91.8-18.24 47-14.77 80.45-34 109.54-69.39.62 3.94-2.84 8-.67 13.33.9 4.06 3.33-3.13 2.82-6.54z"/></svg>