<svg id="Layer_2" height="512" viewBox="0 0 256 256" width="512" xmlns="http://www.w3.org/2000/svg" data-name="Layer 2"><path d="m125.12 88.3c.2 7.17-9.43 5.84-8.54-1.83 1.42-4.96 8.91-4.05 8.54 1.83zm-.2 0c-.14-4.2-8.94-3.79-7.1 1.85 1.36 2.63 6.36 1.58 7.1-1.85z"/><path d="m136.12 81.3c.2 7.17-9.43 5.84-8.54-1.83 1.42-4.96 8.91-4.05 8.54 1.83zm-.2 0c-.14-4.2-8.94-3.79-7.1 1.85 1.36 2.63 6.36 1.58 7.1-1.85z"/><path d="m138.12 101.3c.2 7.17-9.43 5.84-8.54-1.83 1.42-4.96 8.91-4.05 8.54 1.83zm-.2 0c-.14-4.2-8.94-3.79-7.1 1.85 1.36 2.63 6.36 1.58 7.1-1.85z"/><path d="m128.12 117.3c.2 7.17-9.43 5.84-8.54-1.83 1.42-4.96 8.91-4.05 8.54 1.83zm-.2 0c-.14-4.2-8.94-3.79-7.1 1.85 1.36 2.63 6.36 1.58 7.1-1.85z"/><path d="m134.12 136.3c.2 7.17-9.43 5.84-8.54-1.83 1.42-4.96 8.91-4.05 8.54 1.83zm-.2 0c-.14-4.2-8.94-3.79-7.1 1.85 1.36 2.63 6.36 1.58 7.1-1.85z"/><path d="m159.12 70.3c.2 7.17-9.43 5.84-8.54-1.83 1.42-4.96 8.91-4.05 8.54 1.83zm-.2 0c-.14-4.2-8.94-3.79-7.1 1.85 1.36 2.63 6.36 1.58 7.1-1.85z"/><path d="m149.12 88.3c.2 7.17-9.43 5.84-8.54-1.83 1.42-4.96 8.91-4.05 8.54 1.83zm-.2 0c-.14-4.2-8.94-3.79-7.1 1.85 1.36 2.63 6.36 1.58 7.1-1.85z"/><path d="m108.12 78.3c.2 7.17-9.43 5.84-8.54-1.83 1.42-4.96 8.91-4.05 8.54 1.83zm-.2 0c-.14-4.2-8.94-3.79-7.1 1.85 1.36 2.63 6.36 1.58 7.1-1.85z"/><path d="m130.12 149.3c.2 7.17-9.43 5.84-8.54-1.83 1.42-4.96 8.91-4.05 8.54 1.83zm-.2 0c-.14-4.2-8.94-3.79-7.1 1.85 1.36 2.63 6.36 1.58 7.1-1.85z"/><path d="m139.12 160.3c.2 7.17-9.43 5.84-8.54-1.83 1.42-4.96 8.91-4.05 8.54 1.83zm-.2 0c-.14-4.2-8.94-3.79-7.1 1.85 1.36 2.63 6.36 1.58 7.1-1.85z"/><path d="m136.12 175.3c.2 7.17-9.43 5.84-8.54-1.83 1.42-4.96 8.91-4.05 8.54 1.83zm-.2 0c-.14-4.2-8.94-3.79-7.1 1.85 1.36 2.63 6.36 1.58 7.1-1.85z"/><path d="m129.12 185.3c.2 7.17-9.43 5.84-8.54-1.83 1.42-4.96 8.91-4.05 8.54 1.83zm-.2 0c-.14-4.2-8.94-3.79-7.1 1.85 1.36 2.63 6.36 1.58 7.1-1.85z"/><path d="m129.12 206.3c.2 7.17-9.43 5.84-8.54-1.83 1.42-4.96 8.91-4.05 8.54 1.83zm-.2 0c-.14-4.2-8.94-3.79-7.1 1.85 1.36 2.63 6.36 1.58 7.1-1.85z"/><path d="m139.12 217.3c.2 7.17-9.43 5.84-8.54-1.83 1.42-4.96 8.91-4.05 8.54 1.83zm-.2 0c-.14-4.2-8.94-3.79-7.1 1.85 1.36 2.63 6.36 1.58 7.1-1.85z"/><path d="m160.12 225.3c.2 7.17-9.43 5.84-8.54-1.83 1.42-4.96 8.91-4.05 8.54 1.83zm-.2 0c-.14-4.2-8.94-3.79-7.1 1.85 1.36 2.63 6.36 1.58 7.1-1.85z"/><path d="m149.12 208.3c.2 7.17-9.43 5.84-8.54-1.83 1.42-4.96 8.91-4.05 8.54 1.83zm-.2 0c-.14-4.2-8.94-3.79-7.1 1.85 1.36 2.63 6.36 1.58 7.1-1.85z"/><path d="m118.12 218.3c.2 7.17-9.43 5.84-8.54-1.83 1.42-4.96 8.91-4.05 8.54 1.83zm-.2 0c-.14-4.2-8.94-3.79-7.1 1.85 1.36 2.63 6.36 1.58 7.1-1.85z"/><path d="m107.12 228.3c.2 7.17-9.43 5.84-8.54-1.83 1.42-4.96 8.91-4.05 8.54 1.83zm-.2 0c-.14-4.2-8.94-3.79-7.1 1.85 1.36 2.63 6.36 1.58 7.1-1.85z"/><path d="m193 235c-4.16-.55-8.33-1-12.51-1.5 6.1-21.51.46-45.88-13.76-64.25-14.9-22-32.78-36-30.5-42.87 1-4.57 3.62-7.33 7.55-10.88 25.65-30.15 45.82-55.17 35.63-92.7 4.41-.54 20.59-3.13 10.43-2.51-46.47 6.65-165.59-6.57-113.56 3.46-7.09 24.32 6.91 48.15 17.25 69.86 12.52 24.29 32.64 24.62 20.64 44.08l.16-.16c-3.26 2.41-23.63 30-13.15 19 7-8.76 17.33-13 22-23.66 5.82-20.62-37.87-42.8-40.18-69.98 31.16 6.28 64.72 1.79 92.8-14.66-3.61 16.91-8.85 35-19.83 49.07-5.92 7.55-14 11.44-20.37 19-12.54 20 7.16 28.24 18.36 39.69 16 18.79 21.89 43.37 24.92 67.41-43.6-56.11-59.57-34.72-100.74 2.51 1-11.62 1-24.68 3.8-36.86-6.33 12.05-12.8 29-6.61 43.4-1.36.33-17.48 2.75-10.87 3.23 24.24 1.33 46.35-.58 71.62-1.14 17.45-.84 40.34 1.38 56.92.46zm-28-184.4c-23.61 8.14-48.8 15.4-74.59 12.48-3.12-1.07-8.13 1.48-8-3.44-1.9-12.07-3.75-22.94-4.86-35.64 33 6 67.51 3.17 101.12-1.07-2.31 19.64 1.93 24.95-13.67 27.67zm-4.42 181c-27.92-1.68-55.93-4-84 .66 1.51-9.28 14.72-12.5 21.11-19.75 10.8-8.6 19.79-22.72 35.14-21.13 17.11 3.82 29.75 20.5 42.66 30.44 4.66 2.61 3.52 6.18 4.07 11.59q-9.41-1.03-18.94-1.82z"/></svg>